<?xml version="1.0" encoding="UTF-8" standalone="no"?>
<!-- Uploaded to: SVG Repo, www.svgrepo.com, Generator: SVG Repo Mixer Tools -->

<svg
   height="816.8905"
   width="892.91553"
   version="1.1"
   id="_x32_"
   viewBox="0 0 571.46594 522.80992"
   xml:space="preserve"
   sodipodi:docname="leaf-svgrepo-com.svg"
   inkscape:version="1.4.2 (ebf0e940, 2025-05-08)"
   xmlns:inkscape="http://www.inkscape.org/namespaces/inkscape"
   xmlns:sodipodi="http://sodipodi.sourceforge.net/DTD/sodipodi-0.dtd"
   xmlns="http://www.w3.org/2000/svg"
   xmlns:svg="http://www.w3.org/2000/svg"><defs
   id="defs1" /><sodipodi:namedview
   id="namedview1"
   pagecolor="#ffffff"
   bordercolor="#000000"
   borderopacity="0.25"
   inkscape:showpageshadow="2"
   inkscape:pageopacity="0.0"
   inkscape:pagecheckerboard="0"
   inkscape:deskcolor="#d1d1d1"
   inkscape:zoom="0.4808196"
   inkscape:cx="392.03893"
   inkscape:cy="369.16132"
   inkscape:window-width="1512"
   inkscape:window-height="916"
   inkscape:window-x="0"
   inkscape:window-y="38"
   inkscape:window-maximized="1"
   inkscape:current-layer="g1" />
<style
   type="text/css"
   id="style1">
	.st0{fill:#000000;}
</style>
<g
   id="g1"
   transform="translate(29.706398,5.7708582)">
	<path
   id="path2"
   style="fill:#ffffff"
   class="st0"
   sodipodi:type="inkscape:offset"
   inkscape:radius="29.707293"
   inkscape:original="M 475.30078 23.939453 C 475.18246 23.934553 475.05735 23.936359 474.92578 23.943359 C 464.22472 24.506882 409.61931 63.530797 290.88281 91.232422 C 230.34581 105.35542 62.501109 153.52645 65.287109 392.81445 L 0 431.2168 L 20.337891 466.81641 C 83.410891 426.12441 256.35152 346.77431 430.10352 143.19531 C 430.10352 143.19531 403.22881 277.61495 96.007812 454.25195 C 199.69281 508.00995 345.61328 508.00931 456.98828 377.44531 C 568.34728 246.88831 476.1875 24.146484 476.1875 24.146484 C 475.95027 24.023296 475.65573 23.954013 475.30078 23.939453 z "
   d="m 476.51758,-5.7421875 c -1.27203,-0.052161 -2.30133,-0.025582 -3.1543,0.019531 -9.66561,0.5089958 -12.39112,2.6270412 -16.22461,4.265625 -3.83348,1.6385837 -7.55681,3.4641763 -11.89844,5.5996093 -8.68325,4.270866 -19.66041,9.7839719 -33.91211,16.1328129 -28.50339,12.69768 -69.8516,28.648863 -127.19531,42.027343 C 252.50256,69.681923 189.69632,86.407689 134.60156,135.38477 82.095015,182.06102 38.493309,258.99548 35.779297,375.70508 L -15.0625,405.61133 a 29.710263,29.710263 0 0 0 -10.732422,40.34179 l 20.3378908,35.59961 A 29.710263,29.710263 0 0 0 36.443359,491.7793 c 8.664254,-5.58981 21.152966,-12.86163 35.292969,-21.03907 A 29.710263,29.710263 0 0 0 82.333984,480.625 C 196.13024,539.62543 359.90027,537.03571 479.58984,396.72461 543.30842,322.02112 547.48418,224.40203 537.82031,148.10352 528.15644,71.804997 503.63867,12.789062 503.63867,12.789063 A 29.710263,29.710263 0 0 0 489.87891,-2.21875 c -5.11948,-2.6584239 -9.82282,-3.3782883 -13.36133,-3.5234375 z" /><path
   id="path1"
   class="st0"
   d="m 475.3,23.94 c -0.11832,-0.0049 -0.24343,-0.0032 -0.375,0.0038 -10.70106,0.563523 -65.30475,39.587125 -184.04125,67.28875 -60.537,14.123 -228.3835,62.2945 -225.5975,301.5825 L 0,431.2175 20.3375,466.81625 C 83.4105,426.12425 256.35175,346.774 430.10375,143.195 c 0,0 -26.87525,134.41925 -334.09625,311.05625 103.685,53.758 249.605,53.75775 360.98,-76.80625 111.359,-130.557 19.2,-353.29875 19.2,-353.29875 C 475.95027,24.023062 475.65495,23.95456 475.3,23.94 Z" />
</g>
</svg>
